<svg width="230" height="45" viewBox="0 0 230 45" fill="none" xmlns="http://www.w3.org/2000/svg">
<path d="M14.5705 43.8293H5.90387V22.2245H0V15.1904H5.90364V10.1851C5.90364 4.25385 8.51483 0 17.158 0C18.986 0 21.856 0.36846 21.856 0.36846V6.9H18.8416C15.7702 6.9 14.571 7.83426 14.571 10.4172V15.1904H21.741L21.1025 22.2245H14.5707L14.5705 43.8293ZM34.4563 14.6282C34.33 14.6282 34.2001 14.6328 34.0715 14.6361C26.0353 14.6361 22.3585 20.6809 22.3585 29.2618C22.3585 40.0713 27.1278 44.3976 34.1343 44.3976C38.143 44.3976 40.7767 42.7103 42.3775 39.5616V43.8323H50.6207V15.1933H42.3775V19.5976C41.0704 16.764 38.3631 14.6618 34.4563 14.6282ZM36.5523 21.3955C39.9275 21.3955 41.9534 23.7498 41.9534 27.7543L41.9612 31.8444C41.9612 34.5435 40.288 37.7012 36.5523 37.7012C30.8092 37.7012 30.9626 31.4999 30.9626 29.4345C30.9626 22.4869 34.0225 21.3955 36.5523 21.3955ZM53.9497 29.5143C53.9497 26.0342 53.7832 14.6469 68.6191 14.6469C74.5745 14.6469 77.0613 16.5405 77.0613 16.5405L75.0626 22.7397C75.0626 22.7397 72.579 21.3721 69.3429 21.3721C65.1981 21.3721 62.5533 23.7749 62.5533 28.0025L62.5579 31.0339C62.5579 35.0962 65.1098 37.8079 69.3514 37.8079C72.2996 37.8079 75.0168 36.4274 75.0168 36.4274L77.0104 42.4971C77.0104 42.4971 74.7367 44.4027 68.6608 44.4027C54.5346 44.4027 53.95 34.1861 53.95 29.5143H53.9497ZM125.394 14.6361C133.431 14.6361 137.165 20.6809 137.165 29.2618C137.165 40.0713 132.396 44.3976 125.389 44.3976C121.381 44.3976 118.417 42.7106 116.817 39.5616V43.8323L108.677 43.8291V0.870781L117.319 0.11707V19.2096C118.566 15.8693 122.665 14.6361 125.394 14.6361H125.394ZM122.971 21.3955C119.596 21.3955 117.319 23.7498 117.319 27.7543L117.311 31.8444C117.306 34.5435 118.888 37.7012 122.971 37.7012C128.714 37.7012 128.561 31.4999 128.561 29.4345C128.561 22.4869 125.501 21.3955 122.971 21.3955ZM92.0559 14.6597C82.941 14.6597 78.1289 19.6294 78.1289 28.4609V30.1017C78.1289 41.5642 84.8866 44.5154 92.943 44.5154C100.774 44.5154 104.318 42.3251 104.318 42.3251L102.701 36.4923C102.701 36.4923 98.5318 38.2663 93.9792 38.2663C89.2596 38.2663 87.2298 37.0634 86.7095 32.5278H105.009V27.8484C105.009 18.2685 99.6086 14.6595 92.0557 14.6595L92.0559 14.6597ZM92.2755 20.5004C95.4307 20.5004 97.4752 22.4351 97.3629 26.9222H86.7254C86.9099 22.1996 89.1147 20.5006 92.2755 20.5006V20.5004ZM154.397 14.6204C145.037 14.6204 140.109 19.8952 140.109 29.348C140.109 42.3177 148.603 44.4054 154.413 44.4054C162.917 44.4054 168.575 39.8268 168.575 29.4658C168.575 18.6818 162.213 14.6204 154.397 14.6204ZM154.279 21.419C158.395 21.419 160.026 24.4994 160.026 28.0057V31.0203C160.026 35.268 157.744 37.7249 154.264 37.7249C151.009 37.7249 148.721 35.4267 148.721 31.0203V28.0057C148.721 23.3064 151.443 21.419 154.279 21.419ZM185.792 14.6204C176.431 14.6204 171.504 19.8952 171.504 29.348C171.504 42.3177 179.998 44.4054 185.807 44.4054C194.312 44.4054 199.97 39.8268 199.97 29.4658C199.97 18.6818 193.608 14.6204 185.792 14.6204ZM185.674 21.419C189.79 21.419 191.42 24.4994 191.42 28.0057V31.0203C191.42 35.268 189.138 37.7249 185.658 37.7249C182.403 37.7249 180.116 35.4267 180.116 31.0203V28.0057C180.116 23.3064 182.838 21.419 185.674 21.419ZM203.236 43.8293V0.870781L211.903 0.1173V28.9108L220.501 15.1906H229.655L220.685 29.4007L230 43.8293H220.821L211.903 29.8191V43.8293H203.236Z" fill="white" fill-opacity="0.22"/>
</svg>
