<svg width="150" height="50" viewBox="0 0 150 50" fill="none" xmlns="http://www.w3.org/2000/svg">
<path d="M64.191 25.9842C64.191 33.0881 58.6336 38.3229 51.8134 38.3229C44.9932 38.3229 39.4358 33.0881 39.4358 25.9842C39.4358 18.8302 44.9932 13.6455 51.8134 13.6455C58.6336 13.6455 64.191 18.8302 64.191 25.9842ZM58.7727 25.9842C58.7727 21.5449 55.5517 18.5076 51.8134 18.5076C48.0751 18.5076 44.8541 21.5449 44.8541 25.9842C44.8541 30.3789 48.0751 33.4608 51.8134 33.4608C55.5517 33.4608 58.7727 30.3734 58.7727 25.9842Z" fill="white" fill-opacity="0.22"/>
<path d="M90.8934 25.9842C90.8934 33.0881 85.336 38.3229 78.5158 38.3229C71.6956 38.3229 66.1382 33.0881 66.1382 25.9842C66.1382 18.8358 71.6956 13.6455 78.5158 13.6455C85.336 13.6455 90.8934 18.8302 90.8934 25.9842ZM85.4751 25.9842C85.4751 21.5449 82.2541 18.5076 78.5158 18.5076C74.7775 18.5076 71.5565 21.5449 71.5565 25.9842C71.5565 30.3789 74.7775 33.4608 78.5158 33.4608C82.2541 33.4608 85.4751 30.3734 85.4751 25.9842Z" fill="white" fill-opacity="0.22"/>
<path d="M116.483 14.3909V36.5427C116.483 45.6549 111.109 49.3765 104.756 49.3765C98.7762 49.3765 95.1769 45.3767 93.8196 42.1057L98.537 40.142C99.377 42.1502 101.435 44.52 104.751 44.52C108.817 44.52 111.337 42.0111 111.337 37.2882V35.5136H111.148C109.936 37.01 107.599 38.3173 104.651 38.3173C98.4813 38.3173 92.8293 32.9435 92.8293 26.0287C92.8293 19.0638 98.4813 13.6455 104.651 13.6455C107.593 13.6455 109.93 14.9528 111.148 16.4047H111.337V14.3965H116.483V14.3909ZM111.721 26.0287C111.721 21.684 108.823 18.5076 105.135 18.5076C101.396 18.5076 98.2644 21.684 98.2644 26.0287C98.2644 30.3289 101.396 33.4608 105.135 33.4608C108.823 33.4608 111.721 30.3289 111.721 26.0287Z" fill="white" fill-opacity="0.22"/>
<path d="M124.967 1.40723V37.5666H119.682V1.40723H124.967Z" fill="white" fill-opacity="0.22"/>
<path d="M145.561 30.0454L149.766 32.8491C148.409 34.8573 145.138 38.3175 139.486 38.3175C132.477 38.3175 127.242 32.8992 127.242 25.9788C127.242 18.6413 132.521 13.6401 138.88 13.6401C145.283 13.6401 148.415 18.7358 149.438 21.4895L150 22.8914L133.506 29.7227C134.769 32.1982 136.732 33.461 139.486 33.461C142.245 33.461 144.159 32.1037 145.561 30.0454ZM132.616 25.6061L143.642 21.0278C143.035 19.4868 141.211 18.4132 139.063 18.4132C136.31 18.4132 132.477 20.8442 132.616 25.6061Z" fill="white" fill-opacity="0.22"/>
<path d="M19.4315 22.7748V17.5401H37.0717C37.2441 18.4524 37.3332 19.5316 37.3332 20.6998C37.3332 24.6273 36.2595 29.4838 32.7993 32.944C29.4337 36.4486 25.1335 38.3178 19.437 38.3178C8.87851 38.3178 0 29.7174 0 19.1589C0 8.60036 8.87851 0 19.437 0C25.2782 0 29.4393 2.29195 32.5657 5.27927L28.8719 8.97308C26.63 6.87028 23.5926 5.23476 19.4315 5.23476C11.7212 5.23476 5.69093 11.4486 5.69093 19.1589C5.69093 26.8692 11.7212 33.083 19.4315 33.083C24.4326 33.083 27.2808 31.0748 29.1055 29.2501C30.5853 27.7704 31.5588 25.6565 31.9426 22.7693L19.4315 22.7748Z" fill="white" fill-opacity="0.22"/>
</svg>
