<svg width="336" height="42" viewBox="0 0 336 42" fill="none" xmlns="http://www.w3.org/2000/svg">
<path d="M30.4302 25.1895H7.94566V19.6106H36.9389C36.1781 17.2438 33.7268 15.0461 29.4158 15.0461H8.3683C3.55019 15.0461 0.760755 16.8212 0.760755 20.7095V24.8514C0.760755 28.2325 3.63472 30.1766 7.86113 30.1766H30.5992V36.0936H0C0.760755 39.3057 3.21208 40.9963 7.60755 40.9963H30.5147C35.3328 40.9963 37.6996 39.1366 37.6996 35.1638V31.0219C37.6996 27.3872 34.9102 25.4431 30.4302 25.1895ZM76.3291 15.1306H48.6038V41.0808H56.4649V31.1065H76.9208C82.5842 31.1065 85.7117 29.1623 85.7117 24.5978V21.7238C85.6272 17.4974 82.077 15.1306 76.3291 15.1306ZM78.8649 23.4144C78.8649 25.274 78.5268 26.2883 75.4838 26.2883H56.4649L56.5494 19.5261H75.1457C78.5268 19.5261 78.9494 20.5404 78.9494 22.3155V23.4144H78.8649ZM111.831 30.9374H95.0943L90.9525 35.3329H115.128L119.269 41.0808H128.568L108.534 14.0317L103.801 19.8642L111.831 30.9374ZM143.614 19.6106H173.029C172.269 16.5676 169.31 15.0461 165.084 15.0461H143.106C139.303 15.0461 135.668 16.5676 135.668 20.7095V35.2483C135.668 39.3902 139.303 40.9117 143.106 40.9117H165.337C170.409 40.9117 172.184 39.4748 173.029 36.0091H143.614V19.6106ZM207.517 28.2325V23.837H183.765V41.0808H218.844V36.1782H191.71V28.2325H207.517ZM184.61 15.1306H220.027V19.6951H184.61V15.1306ZM241.835 15.1306H229.494L244.033 25.7812C246.146 24.3442 248.598 22.8227 250.795 21.5548L241.835 15.1306ZM259.755 28.4015C257.642 29.8385 255.529 31.4446 253.5 32.9661L264.489 40.9963H276.915L259.755 28.4015Z" fill="white" fill-opacity="0.22"/>
<path d="M336 0C268.378 3.8883 237.102 32.797 230.086 39.6438L228.649 40.9962H241.16C274.971 7.10038 323.575 1.09887 336 0Z" fill="white" fill-opacity="0.22"/>
</svg>
