<svg width="190" height="58" viewBox="0 0 190 58" fill="none" xmlns="http://www.w3.org/2000/svg">
<path fill-rule="evenodd" clip-rule="evenodd" d="M117.873 44.7765C106.832 52.9148 90.828 57.2568 77.0492 57.2568C57.7291 57.2568 40.3361 50.1109 27.1775 38.2262C26.1439 37.2914 27.0701 36.0179 28.3106 36.7458C42.5112 45.0081 60.0697 49.9787 78.2071 49.9787C90.4393 49.9787 103.895 47.4479 116.268 42.1961C118.137 41.4021 119.7 43.4201 117.873 44.7765Z" fill="white" fill-opacity="0.2"/>
<path fill-rule="evenodd" clip-rule="evenodd" d="M122.463 39.5252C121.057 37.7221 113.134 38.6732 109.577 39.095C108.494 39.2275 108.329 38.2845 109.305 37.6064C115.615 33.1651 125.97 34.4471 127.177 35.9357C128.385 37.4327 126.863 47.8122 120.933 52.7663C120.023 53.5272 119.155 53.122 119.56 52.1129C120.892 48.7883 123.877 41.3365 122.463 39.5252Z" fill="white" fill-opacity="0.2"/>
<path fill-rule="evenodd" clip-rule="evenodd" d="M109.825 6.25252V1.93534C109.825 1.28193 110.322 0.8436 110.917 0.8436H130.245C130.866 0.8436 131.362 1.2901 131.362 1.93534V5.63217C131.354 6.25252 130.833 7.06306 129.907 8.34499L119.891 22.6448C123.613 22.5539 127.541 23.108 130.915 25.0103C131.676 25.4402 131.883 26.0689 131.941 26.6891V31.2958C131.941 31.9244 131.246 32.6604 130.519 32.2801C124.572 29.1622 116.674 28.823 110.098 32.3131C109.429 32.6772 108.726 31.9493 108.726 31.3207V26.9456C108.726 26.2426 108.734 25.0433 109.437 23.9765L121.04 7.33609H110.942C110.322 7.33609 109.825 6.89776 109.825 6.25252ZM39.3189 33.1898H33.4384C32.876 33.1485 32.4295 32.7267 32.3881 32.189V2.00982C32.3881 1.406 32.8925 0.92625 33.521 0.92625H39.0044C39.5752 0.95095 40.0301 1.38947 40.0715 1.93515V5.8805H40.179C41.6097 2.06777 44.2977 0.28975 47.9202 0.28975C51.6005 0.28975 53.8999 2.06777 55.554 5.8805C56.9765 2.06777 60.2103 0.28975 63.6758 0.28975C66.1402 0.28975 68.8365 1.30701 70.4823 3.58967C72.3432 6.12864 71.9628 9.8173 71.9628 13.0511L71.9544 32.0982C71.9544 32.702 71.45 33.19 70.8215 33.19H64.9493C64.3622 33.1487 63.8906 32.6773 63.8906 32.0982V16.1029C63.8906 14.8291 64.0066 11.6531 63.7253 10.4458C63.287 8.41947 61.972 7.84871 60.2681 7.84871C58.8456 7.84871 57.3569 8.79985 56.7531 10.3217C56.1495 11.8436 56.2074 14.3908 56.2074 16.1029V32.098C56.2074 32.7018 55.7028 33.1898 55.0743 33.1898H49.2021C48.6067 33.1485 48.1434 32.6772 48.1434 32.098L48.1353 16.1029C48.1353 12.7366 48.6893 7.78278 44.5127 7.78278C40.2866 7.78278 40.4519 12.6126 40.4519 16.1029V32.098C40.4519 32.7018 39.9474 33.1898 39.3189 33.1898ZM148.003 0.28956C156.728 0.28956 161.451 7.78259 161.451 17.3103C161.451 26.5154 156.232 33.8185 148.002 33.8185C139.434 33.8185 134.77 26.3253 134.77 16.9877C134.77 7.5924 139.492 0.28956 148.003 0.28956ZM148.052 6.45107C143.718 6.45107 143.445 12.3563 143.445 16.0366C143.445 19.7254 143.388 27.5988 148.003 27.5988C152.56 27.5988 152.775 21.2471 152.775 17.3764C152.775 14.8291 152.667 11.7855 151.898 9.37061C151.236 7.26978 149.921 6.45107 148.052 6.45107H148.052ZM172.765 33.1898H166.909C166.322 33.1485 165.85 32.6772 165.85 32.098L165.842 1.91045C165.892 1.35641 166.38 0.92625 166.975 0.92625H172.425C172.938 0.95095 173.36 1.29865 173.476 1.76985V6.38495H173.583C175.229 2.25796 177.537 0.28956 181.598 0.28956C184.236 0.28956 186.808 1.24051 188.462 3.84579C190 6.26069 190 10.3218 190 13.2413V32.2386C189.934 32.768 189.446 33.1898 188.868 33.1898H182.97C182.433 33.1485 181.986 32.7514 181.928 32.2386V15.8464C181.928 12.5465 182.309 7.71628 178.248 7.71628C176.817 7.71628 175.502 8.67578 174.849 10.1314C174.022 11.9759 173.914 13.8119 173.914 15.8466V32.098C173.906 32.7018 173.393 33.1898 172.765 33.1898ZM94.4174 18.7743C94.4174 21.0651 94.4753 22.9757 93.3173 25.0101C92.3829 26.6644 90.8942 27.6815 89.2482 27.6815C86.9905 27.6815 85.6671 25.9614 85.6671 23.4223C85.6671 18.4102 90.1581 17.5005 94.4174 17.5005V18.7743ZM100.347 33.1071C99.9587 33.4544 99.3963 33.4793 98.958 33.2477C97.0061 31.6266 96.6504 30.874 95.5836 29.3274C92.358 32.6192 90.0671 33.6034 85.8904 33.6034C80.9363 33.6034 77.0905 30.5514 77.0905 24.4397C77.0905 19.6675 79.6709 16.4171 83.3596 14.8291C86.5521 13.4231 91.0099 13.175 94.4176 12.7862V12.0255C94.4176 10.6277 94.5249 8.97351 93.6979 7.76606C92.9867 6.68268 91.6135 6.23599 90.3979 6.23599C88.1565 6.23599 86.1634 7.38549 85.6755 9.76752C85.5761 10.2969 85.1874 10.8178 84.6499 10.8427L78.9514 10.2307C78.4718 10.1232 77.9341 9.73446 78.0747 8.9984C79.3815 2.0843 85.6341 0 91.2252 0C94.0868 0 97.825 0.76095 100.083 2.9279C102.944 5.5993 102.672 9.1637 102.672 13.0427V22.2064C102.672 24.9607 103.813 26.1679 104.888 27.6568C105.26 28.1861 105.343 28.823 104.863 29.2199C103.664 30.2206 101.53 32.0815 100.356 33.1236L100.348 33.1071H100.347ZM17.3273 18.7743C17.3273 21.0651 17.3853 22.9757 16.2272 25.0101C15.2928 26.6644 13.8123 27.6815 12.1582 27.6815C9.90044 27.6815 8.58526 25.9614 8.58526 23.4223C8.58526 18.4102 13.0763 17.5005 17.3273 17.5005V18.7743ZM23.2572 33.1071C22.8687 33.4544 22.3063 33.4793 21.868 33.2477C19.9161 31.6266 19.5686 30.874 18.4936 29.3274C15.2679 32.6192 12.9855 33.6034 8.80034 33.6034C3.85464 33.6034 0.000488281 30.5514 0.000488281 24.4397C0.000488281 19.6675 2.58924 16.4171 6.26954 14.8291C9.46211 13.4231 13.9199 13.175 17.3273 12.7862V12.0255C17.3273 10.6277 17.4349 8.97351 16.616 7.76606C15.8965 6.68268 14.5237 6.23599 13.3161 6.23599C11.0748 6.23599 9.07337 7.38549 8.58526 9.76752C8.48608 10.2969 8.09734 10.8178 7.568 10.8427L1.86135 10.2307C1.3816 10.1232 0.852448 9.73446 0.984688 8.9984C2.29968 2.0843 8.54403 0 14.135 0C16.9964 0 20.7348 0.76095 22.9928 2.9279C25.8542 5.5993 25.5813 9.1637 25.5813 13.0427V22.2064C25.5813 24.9607 26.7227 26.1679 27.7979 27.6568C28.1784 28.1861 28.2611 28.823 27.7813 29.2199C26.5821 30.2206 24.4484 32.0815 23.274 33.1236L23.2574 33.1071" fill="white" fill-opacity="0.2"/>
</svg>
