<svg width="1030" height="993" viewBox="0 0 1030 993" fill="none" xmlns="http://www.w3.org/2000/svg">
<path opacity="0.0416667" d="M961.136 533.158C889.246 566.58 859.717 767.055 648.688 775.02C437.658 782.986 519.948 303.919 310.432 275.754C201.955 261.172 38.5187 375.974 38.5187 375.974" stroke="url(#paint0_linear_63_2833)" stroke-opacity="0.52" stroke-width="1.10471"/>
<path opacity="0.0833333" d="M963.679 539.805C891.755 571.731 858.912 770.052 649.372 774.373C439.832 778.693 529.951 304.972 322.552 273.485C215.171 257.183 50.9686 368.266 50.9686 368.266" stroke="url(#paint1_linear_63_2833)" stroke-opacity="0.52" stroke-width="1.10471"/>
<path opacity="0.125" d="M966.108 546.32C894.179 576.761 858.088 772.875 650.101 773.604C442.113 774.334 539.899 306.084 334.668 271.341C228.41 253.352 63.5216 360.726 63.5216 360.726" stroke="url(#paint2_linear_63_2833)" stroke-opacity="0.52" stroke-width="1.10471"/>
<path opacity="0.166667" d="M968.426 552.704C896.522 581.668 857.25 775.521 650.876 772.715C444.502 769.909 549.792 307.254 346.779 269.32C241.669 249.68 76.1741 353.353 76.1741 353.353" stroke="url(#paint3_linear_63_2833)" stroke-opacity="0.52" stroke-width="1.10471"/>
<path opacity="0.208333" d="M970.636 558.953C898.786 586.452 856.4 777.994 651.699 771.709C446.998 765.425 559.627 308.481 358.881 267.423C254.944 246.166 88.9212 346.151 88.9212 346.151" stroke="url(#paint4_linear_63_2833)" stroke-opacity="0.52" stroke-width="1.10471"/>
<path opacity="0.25" d="M972.741 565.069C900.974 591.112 855.544 780.294 652.574 770.588C449.604 760.882 569.405 309.764 370.972 265.65C268.233 242.81 101.76 339.12 101.76 339.12" stroke="url(#paint5_linear_63_2833)" stroke-opacity="0.52" stroke-width="1.10471"/>
<path opacity="0.291667" d="M974.744 571.045C903.09 595.644 854.685 782.419 653.502 769.35C452.32 756.281 579.123 311.099 383.049 263.997C281.531 239.61 114.684 332.26 114.684 332.26" stroke="url(#paint6_linear_63_2833)" stroke-opacity="0.52" stroke-width="1.10471"/>
<path opacity="0.333333" d="M976.65 576.885C905.136 600.052 853.826 784.373 654.486 768.001C455.146 751.628 588.783 312.488 395.11 262.467C294.835 236.568 127.692 325.575 127.692 325.575" stroke="url(#paint7_linear_63_2833)" stroke-opacity="0.52" stroke-width="1.10471"/>
<path opacity="0.375" d="M978.462 582.583C907.117 604.331 852.973 786.154 655.529 766.539C458.085 746.924 598.382 313.927 407.153 261.055C308.143 233.681 140.78 319.062 140.78 319.062" stroke="url(#paint8_linear_63_2833)" stroke-opacity="0.52" stroke-width="1.10471"/>
<path opacity="0.416667" d="M980.182 588.14C909.033 608.481 852.126 787.765 656.63 764.968C461.135 742.17 607.919 315.414 419.173 259.762C321.449 230.948 153.941 312.724 153.941 312.724" stroke="url(#paint9_linear_63_2833)" stroke-opacity="0.52" stroke-width="1.10471"/>
<path opacity="0.458333" d="M981.815 593.556C910.889 612.503 851.291 789.207 657.794 763.289C464.297 737.372 617.394 316.951 431.17 258.589C334.752 228.372 167.172 306.563 167.172 306.563" stroke="url(#paint10_linear_63_2833)" stroke-opacity="0.52" stroke-width="1.10471"/>
<path opacity="0.5" d="M983.363 598.827C912.687 616.396 850.471 790.481 659.022 761.506C467.572 732.531 626.805 318.533 443.139 257.532C348.046 225.949 180.47 300.579 180.47 300.579" stroke="url(#paint11_linear_63_2833)" stroke-opacity="0.52" stroke-width="1.10471"/>
<path opacity="0.541667" d="M984.832 603.953C914.432 620.157 849.672 791.586 660.317 759.617C470.962 727.648 636.154 320.159 455.082 256.591C361.331 223.678 193.83 294.77 193.83 294.77" stroke="url(#paint12_linear_63_2833)" stroke-opacity="0.52" stroke-width="1.10471"/>
<path opacity="0.583333" d="M986.222 608.934C916.125 623.788 848.893 792.526 661.679 757.627C474.465 722.728 645.437 321.829 466.992 255.765C374.601 221.56 207.248 289.139 207.248 289.139" stroke="url(#paint13_linear_63_2833)" stroke-opacity="0.52" stroke-width="1.10471"/>
<path opacity="0.625" d="M987.54 613.767C917.771 627.288 848.142 793.3 663.112 755.536C478.083 717.773 654.656 323.539 478.869 255.052C387.854 219.592 220.721 283.686 220.721 283.686" stroke="url(#paint14_linear_63_2833)" stroke-opacity="0.52" stroke-width="1.10471"/>
<path opacity="0.666667" d="M988.788 618.452C919.372 630.655 847.419 793.91 664.617 753.348C481.815 712.785 663.81 325.29 490.71 254.45C401.087 217.773 234.243 278.411 234.243 278.411" stroke="url(#paint15_linear_63_2833)" stroke-opacity="0.52" stroke-width="1.10471"/>
<path opacity="0.708333" d="M989.969 622.99C920.931 633.891 846.73 794.36 666.196 751.064C485.661 707.768 672.897 327.079 502.513 253.961C414.296 216.104 247.81 273.315 247.81 273.315" stroke="url(#paint16_linear_63_2833)" stroke-opacity="0.52" stroke-width="1.10471"/>
<path opacity="0.75" d="M991.087 627.378C922.45 636.995 846.077 794.648 667.85 748.685C489.622 702.723 681.917 328.904 514.275 253.581C427.478 214.582 261.419 268.396 261.419 268.396" stroke="url(#paint17_linear_63_2833)" stroke-opacity="0.52" stroke-width="1.10471"/>
<path opacity="0.791667" d="M992.147 631.616C923.935 639.966 845.465 794.777 669.582 746.215C493.7 697.653 690.87 330.764 525.996 253.308C440.631 213.206 275.067 263.657 275.067 263.657" stroke="url(#paint18_linear_63_2833)" stroke-opacity="0.52" stroke-width="1.10471"/>
<path opacity="0.833333" d="M993.15 635.704C925.386 642.804 844.894 794.749 671.393 743.655C497.891 692.562 699.755 332.657 537.67 253.143C453.75 211.974 288.747 259.095 288.747 259.095" stroke="url(#paint19_linear_63_2833)" stroke-opacity="0.52" stroke-width="1.10471"/>
<path opacity="0.875" d="M994.101 639.64C926.809 645.509 844.371 794.565 673.284 741.008C502.198 687.45 708.572 334.582 549.298 253.082C466.834 210.885 302.456 254.712 302.456 254.712" stroke="url(#paint20_linear_63_2833)" stroke-opacity="0.52" stroke-width="1.10471"/>
<path opacity="0.916667" d="M995.003 643.426C928.204 648.082 843.896 794.227 675.258 738.275C506.619 682.323 717.32 336.537 560.877 253.126C479.878 209.939 316.191 250.508 316.191 250.508" stroke="url(#paint21_linear_63_2833)" stroke-opacity="0.52" stroke-width="1.10471"/>
<path opacity="0.958333" d="M995.86 647.059C929.575 650.522 843.475 793.737 677.315 735.458C511.155 677.18 725.999 338.52 572.405 253.27C492.88 209.132 329.947 246.48 329.947 246.48" stroke="url(#paint22_linear_63_2833)" stroke-opacity="0.52" stroke-width="1.10471"/>
<path d="M996.676 650.541C930.927 652.829 843.11 793.097 679.458 732.562C515.807 672.027 734.61 340.53 583.88 253.516C505.838 208.464 343.72 242.63 343.72 242.63" stroke="url(#paint23_linear_63_2833)" stroke-opacity="0.52" stroke-width="1.10471"/>
<defs>
<linearGradient id="paint0_linear_63_2833" x1="1006.2" y1="620.105" x2="-34.8436" y2="713.364" gradientUnits="userSpaceOnUse">
<stop stop-color="#448493" stop-opacity="0.28"/>
<stop offset="1" stop-color="#3A4EFF"/>
</linearGradient>
<linearGradient id="paint1_linear_63_2833" x1="1006.86" y1="626.799" x2="-27.8342" y2="700.989" gradientUnits="userSpaceOnUse">
<stop stop-color="#448493" stop-opacity="0.28"/>
<stop offset="1" stop-color="#3A4EFF"/>
</linearGradient>
<linearGradient id="paint2_linear_63_2833" x1="1007.42" y1="633.324" x2="-20.5808" y2="688.695" gradientUnits="userSpaceOnUse">
<stop stop-color="#448493" stop-opacity="0.28"/>
<stop offset="1" stop-color="#3A4EFF"/>
</linearGradient>
<linearGradient id="paint3_linear_63_2833" x1="1007.88" y1="639.677" x2="-13.0859" y2="676.486" gradientUnits="userSpaceOnUse">
<stop stop-color="#448493" stop-opacity="0.28"/>
<stop offset="1" stop-color="#3A4EFF"/>
</linearGradient>
<linearGradient id="paint4_linear_63_2833" x1="1008.24" y1="645.858" x2="-5.35286" y2="664.367" gradientUnits="userSpaceOnUse">
<stop stop-color="#448493" stop-opacity="0.28"/>
<stop offset="1" stop-color="#3A4EFF"/>
</linearGradient>
<linearGradient id="paint5_linear_63_2833" x1="1008.52" y1="651.868" x2="2.61611" y2="652.345" gradientUnits="userSpaceOnUse">
<stop stop-color="#448493" stop-opacity="0.28"/>
<stop offset="1" stop-color="#3A4EFF"/>
</linearGradient>
<linearGradient id="paint6_linear_63_2833" x1="1008.7" y1="657.701" x2="10.8174" y2="640.42" gradientUnits="userSpaceOnUse">
<stop stop-color="#448493" stop-opacity="0.28"/>
<stop offset="1" stop-color="#3A4EFF"/>
</linearGradient>
<linearGradient id="paint7_linear_63_2833" x1="1008.81" y1="663.361" x2="19.2486" y2="628.601" gradientUnits="userSpaceOnUse">
<stop stop-color="#448493" stop-opacity="0.28"/>
<stop offset="1" stop-color="#3A4EFF"/>
</linearGradient>
<linearGradient id="paint8_linear_63_2833" x1="1008.84" y1="668.843" x2="27.9069" y2="616.89" gradientUnits="userSpaceOnUse">
<stop stop-color="#448493" stop-opacity="0.28"/>
<stop offset="1" stop-color="#3A4EFF"/>
</linearGradient>
<linearGradient id="paint9_linear_63_2833" x1="1008.79" y1="674.148" x2="36.7874" y2="605.292" gradientUnits="userSpaceOnUse">
<stop stop-color="#448493" stop-opacity="0.28"/>
<stop offset="1" stop-color="#3A4EFF"/>
</linearGradient>
<linearGradient id="paint10_linear_63_2833" x1="1008.68" y1="679.277" x2="45.8883" y2="593.812" gradientUnits="userSpaceOnUse">
<stop stop-color="#448493" stop-opacity="0.28"/>
<stop offset="1" stop-color="#3A4EFF"/>
</linearGradient>
<linearGradient id="paint11_linear_63_2833" x1="1008.5" y1="684.227" x2="55.2051" y2="582.454" gradientUnits="userSpaceOnUse">
<stop stop-color="#448493" stop-opacity="0.28"/>
<stop offset="1" stop-color="#3A4EFF"/>
</linearGradient>
<linearGradient id="paint12_linear_63_2833" x1="1008.26" y1="688.998" x2="64.736" y2="571.221" gradientUnits="userSpaceOnUse">
<stop stop-color="#448493" stop-opacity="0.28"/>
<stop offset="1" stop-color="#3A4EFF"/>
</linearGradient>
<linearGradient id="paint13_linear_63_2833" x1="1007.96" y1="693.589" x2="74.4757" y2="560.119" gradientUnits="userSpaceOnUse">
<stop stop-color="#448493" stop-opacity="0.28"/>
<stop offset="1" stop-color="#3A4EFF"/>
</linearGradient>
<linearGradient id="paint14_linear_63_2833" x1="1007.61" y1="698.001" x2="84.4219" y2="549.151" gradientUnits="userSpaceOnUse">
<stop stop-color="#448493" stop-opacity="0.28"/>
<stop offset="1" stop-color="#3A4EFF"/>
</linearGradient>
<linearGradient id="paint15_linear_63_2833" x1="1007.21" y1="702.232" x2="94.57" y2="538.32" gradientUnits="userSpaceOnUse">
<stop stop-color="#448493" stop-opacity="0.28"/>
<stop offset="1" stop-color="#3A4EFF"/>
</linearGradient>
<linearGradient id="paint16_linear_63_2833" x1="1006.76" y1="706.285" x2="104.916" y2="527.632" gradientUnits="userSpaceOnUse">
<stop stop-color="#448493" stop-opacity="0.28"/>
<stop offset="1" stop-color="#3A4EFF"/>
</linearGradient>
<linearGradient id="paint17_linear_63_2833" x1="1006.28" y1="710.156" x2="115.457" y2="517.09" gradientUnits="userSpaceOnUse">
<stop stop-color="#448493" stop-opacity="0.28"/>
<stop offset="1" stop-color="#3A4EFF"/>
</linearGradient>
<linearGradient id="paint18_linear_63_2833" x1="1005.76" y1="713.848" x2="126.19" y2="506.696" gradientUnits="userSpaceOnUse">
<stop stop-color="#448493" stop-opacity="0.28"/>
<stop offset="1" stop-color="#3A4EFF"/>
</linearGradient>
<linearGradient id="paint19_linear_63_2833" x1="1005.21" y1="717.359" x2="137.108" y2="496.456" gradientUnits="userSpaceOnUse">
<stop stop-color="#448493" stop-opacity="0.28"/>
<stop offset="1" stop-color="#3A4EFF"/>
</linearGradient>
<linearGradient id="paint20_linear_63_2833" x1="1004.63" y1="720.69" x2="148.209" y2="486.372" gradientUnits="userSpaceOnUse">
<stop stop-color="#448493" stop-opacity="0.28"/>
<stop offset="1" stop-color="#3A4EFF"/>
</linearGradient>
<linearGradient id="paint21_linear_63_2833" x1="1004.02" y1="723.842" x2="159.488" y2="476.448" gradientUnits="userSpaceOnUse">
<stop stop-color="#448493" stop-opacity="0.28"/>
<stop offset="1" stop-color="#3A4EFF"/>
</linearGradient>
<linearGradient id="paint22_linear_63_2833" x1="1003.4" y1="726.813" x2="170.941" y2="466.687" gradientUnits="userSpaceOnUse">
<stop stop-color="#448493" stop-opacity="0.28"/>
<stop offset="1" stop-color="#3A4EFF"/>
</linearGradient>
<linearGradient id="paint23_linear_63_2833" x1="1002.76" y1="729.607" x2="182.565" y2="457.092" gradientUnits="userSpaceOnUse">
<stop stop-color="#448493" stop-opacity="0.28"/>
<stop offset="1" stop-color="#3A4EFF"/>
</linearGradient>
</defs>
</svg>
